<?xml version="1.0" encoding="UTF-8"?>
<svg width="124px" height="18px" viewBox="0 0 124 18" version="1.1" xmlns="http://www.w3.org/2000/svg" xmlns:xlink="http://www.w3.org/1999/xlink">
    <!-- Generator: Sketch 47.1 (45422) - http://www.bohemiancoding.com/sketch -->
    <title>Group</title>
    <desc>Created with Sketch.</desc>
    <defs></defs>
    <g id="Page-1" stroke="none" stroke-width="1" fill="none" fill-rule="evenodd">
        <g id="Group" fill-rule="nonzero">
            <g id="logo">
                <path d="M7.09980119,14.2520548 L0.0739562624,1.25753425 C-0.0246520875,1.06027397 -0.0246520875,0.81369863 0.0986083499,0.64109589 C0.221868787,0.443835616 0.419085487,0.320547945 0.640954274,0.320547945 L2.26799205,0.320547945 C2.48986083,0.320547945 2.71172962,0.443835616 2.83499006,0.665753425 L8.62823062,11.4164384 L7.09980119,14.2520548 Z" id="Shape" fill="#1C5A7D"></path>
                <path d="M9.76222664,13.5369863 L9.76222664,13.5369863 L16.7880716,0.64109589 C16.911332,0.443835616 17.1085487,0.320547945 17.3550696,0.320547945 L18.9821074,0.320547945 C19.2039761,0.320547945 19.4258449,0.443835616 19.5244533,0.64109589 C19.6477137,0.838356164 19.6477137,1.08493151 19.5244533,1.28219178 L11.6604374,15.7315068 C11.561829,15.9287671 10.9455268,16.8657534 9.76222664,16.8657534 C9.12127237,16.8657534 8.62823062,16.5945205 8.28310139,16.2493151 L9.76222664,13.5369863 Z" id="Shape" fill="#1C5A7D"></path>
                <path d="M53.6675944,14.2520548 L46.6417495,1.25753425 C46.5431412,1.06027397 46.5431412,0.81369863 46.6664016,0.64109589 C46.789662,0.443835616 46.9868787,0.320547945 47.2087475,0.320547945 L48.8357853,0.320547945 C49.0576541,0.320547945 49.2795229,0.443835616 49.4027833,0.665753425 L55.2206759,11.4164384 L53.6675944,14.2520548 Z" id="Shape" fill="#9BBDAA"></path>
                <path d="M56.354672,13.5369863 L56.354672,13.5369863 L63.3805169,0.64109589 C63.5037773,0.443835616 63.700994,0.320547945 63.9475149,0.320547945 L65.5745527,0.320547945 C65.7964215,0.320547945 66.0182903,0.443835616 66.1168986,0.64109589 C66.240159,0.838356164 66.240159,1.08493151 66.1168986,1.28219178 L58.2528827,15.7561644 C58.1542744,15.9534247 57.5379722,16.890411 56.354672,16.890411 C55.7137177,16.890411 55.2206759,16.6191781 54.8755467,16.2739726 L56.354672,13.5369863 Z" id="Shape" fill="#9BBDAA"></path>
                <path d="M84.0143141,14.2520548 L77.0131213,1.25753425 C76.9145129,1.06027397 76.9145129,0.81369863 77.0377734,0.64109589 C77.1610338,0.443835616 77.3582505,0.320547945 77.5801193,0.320547945 L79.2071571,0.320547945 C79.4290258,0.320547945 79.6508946,0.443835616 79.7741551,0.665753425 L85.5920477,11.4410959 L84.0143141,14.2520548 Z" id="Shape" fill="#C2CB7F"></path>
                <path d="M86.7013917,13.5369863 L86.7013917,13.5369863 L93.7272366,0.64109589 C93.850497,0.443835616 94.0477137,0.320547945 94.2942346,0.320547945 L95.9212724,0.320547945 C96.1431412,0.320547945 96.3650099,0.443835616 96.4636183,0.64109589 C96.5868787,0.838356164 96.5868787,1.08493151 96.4636183,1.28219178 L88.5996024,15.7561644 C88.500994,15.9534247 87.8846918,16.890411 86.7013917,16.890411 C86.0604374,16.890411 85.5673956,16.6191781 85.2222664,16.2739726 L86.7013917,13.5369863 Z" id="Shape" fill="#C2CB7F"></path>
                <path d="M33.822664,0.295890411 L32.3435388,0.295890411 C31.9984095,0.295890411 31.7025845,0.591780822 31.7025845,0.936986301 L31.7025845,15.509589 C31.7025845,16.2739726 32.3188867,16.890411 33.0831014,16.890411 C33.8473161,16.890411 34.4636183,16.2739726 34.4636183,15.509589 L34.4636183,0.936986301 C34.4636183,0.591780822 34.1677932,0.295890411 33.822664,0.295890411 Z" id="Shape" fill="#4D868E"></path>
                <path d="M109.94831,16.3232877 L111.254871,13.9561644 C109.701789,12.8219178 108.666402,10.9972603 108.666402,8.9260274 C108.666402,5.49863014 111.452087,2.71232877 114.878728,2.71232877 C115.692247,2.71232877 116.456461,2.88493151 117.171372,3.15616438 L118.477932,0.789041096 C117.368588,0.295890411 116.160636,0.0246575342 114.878728,0.0246575342 C109.972962,0.0246575342 105.954672,4.01917808 105.954672,8.95068493 C105.979324,12.0082192 107.557058,14.7205479 109.94831,16.3232877 Z" id="Shape" fill="#C4D600"></path>
                <path d="M120.228231,1.77534247 L118.92167,4.16712329 C120.252883,5.30136986 121.115706,7.00273973 121.115706,8.90136986 C121.115706,12.3287671 118.33002,15.1150685 114.90338,15.1150685 C114.262425,15.1150685 113.646123,15.0164384 113.054473,14.8438356 L111.747913,17.2356164 C112.733996,17.6054795 113.794036,17.8027397 114.90338,17.8027397 C119.809145,17.8027397 123.827435,13.8082192 123.827435,8.87671233 C123.802783,5.99178082 122.397614,3.40273973 120.228231,1.77534247 Z" id="Shape" fill="#C4D600"></path>
            </g>
        </g>
    </g>
</svg>